PathFileType	4	(X/Y/Z)	/Users/itak/Documents/Research/Walk-IL/dataset/trc/00186_00008.trc
DataRate	CameraRate	NumFrames	NumMarkers	Units	OrigDataRate	OrigDataStartFrame	OrigNumFrames
100.000000	100.000000	4	53	mm	100.000000	195	780
Frame#	Time	RPSI			LPSI			L3			STRN			T10			C7			CLAV			RBAK			LBAK			LSHO			LUPA			LAEL			LAOL			LWTS			LWPS			LFRA			LIFD			LHPS			LHTS			RSHO			RUPA			RAEL			RAOL			RWTS			RWPS			RFRA			RIFD			RHTS			RHPS			RBHD			LFHD			RFHD			LBHD			LHIP			RHIP			RASI			LASI			LKNE			LTHI			LANK			LTIP			LTOE			LMT1			LMT5			LHEE			RKNE			RTHI			RANK			RTIP			RTOE			RMT1			RMT5			RHEE			
		X1	Y1	Z1	X2	Y2	Z2	X3	Y3	Z3	X4	Y4	Z4	X5	Y5	Z5	X6	Y6	Z6	X7	Y7	Z7	X8	Y8	Z8	X9	Y9	Z9	X10	Y10	Z10	X11	Y11	Z11	X12	Y12	Z12	X13	Y13	Z13	X14	Y14	Z14	X15	Y15	Z15	X16	Y16	Z16	X17	Y17	Z17	X18	Y18	Z18	X19	Y19	Z19	X20	Y20	Z20	X21	Y21	Z21	X22	Y22	Z22	X23	Y23	Z23	X24	Y24	Z24	X25	Y25	Z25	X26	Y26	Z26	X27	Y27	Z27	X28	Y28	Z28	X29	Y29	Z29	X30	Y30	Z30	X31	Y31	Z31	X32	Y32	Z32	X33	Y33	Z33	X34	Y34	Z34	X35	Y35	Z35	X36	Y36	Z36	X37	Y37	Z37	X38	Y38	Z38	X39	Y39	Z39	X40	Y40	Z40	X41	Y41	Z41	X42	Y42	Z42	X43	Y43	Z43	X44	Y44	Z44	X45	Y45	Z45	X46	Y46	Z46	X47	Y47	Z47	X48	Y48	Z48	X49	Y49	Z49	X50	Y50	Z50	X51	Y51	Z51	X52	Y52	Z52	X53	Y53	Z53	

196	1.95	935.3820190429688	1027.80859375	766.2449340820312	829.7221069335938	1024.592895507812	696.7091674804688	878.3803100585938	1059.368774414062	730.279541015625	1022.483520507812	1271.205444335938	509.68896484375	845.0658569335938	1215.1923828125	754.1448364257812	865.2789916992188	1483.9609375	684.2882080078125	994.708740234375	1383.833984375	525.4133911132812	918.313720703125	1314.373779296875	808.5551147460938	780.6807250976562	1456.722778320312	628.9066162109375	765.4622192382812	1440.609252929688	520.8782958984375	685.26953125	1307.156982421875	515.4829711914062	671.0256958007812	1092.438354492188	518.9630126953125	710.677001953125	1083.02587890625	599.8088989257812	728.05517578125	842.9366455078125	474.1865844726562	649.513916015625	841.9684448242188	524.2040405273438	654.9536743164062	983.430419921875	513.70654296875	724.30126953125	658.0947265625	511.0586547851562	651.9822387695312	770.1525268554688	520.593017578125	703.5828247070312	762.6705322265625	469.3560180664062	1046.288818359375	1472.59814453125	742.5604248046875	1087.68115234375	1412.055053710938	804.6375732421875	1122.69091796875	1136.01708984375	883.9842529296875	1046.517456054688	1116.276489257812	820.8773803710938	1208.184326171875	895.31787109375	801.93994140625	1193.695068359375	892.3951416015625	889.638916015625	1155.732788085938	1064.6943359375	887.4124145507812	1190.345458984375	706.8311767578125	806.5020751953125	1229.681030273438	798.4763793945312	803.1268310546875	1208.7783203125	806.8700561523438	880.6063842773438	962.2710571289062	1647.984008789062	674.3484497070312	906.7117309570312	1688.189208984375	467.0227966308594	1024.682739257812	1702.68115234375	518.5567016601562	834.1062622070312	1640.253173828125	624.1546630859375	779.800048828125	957.9974365234375	551.8643798828125	1123.17919921875	989.17822265625	694.5220947265625	1112.475341796875	1017.111083984375	597.9283447265625	890.6438598632812	992.8320922851562	466.9541931152344	787.1985473632812	464.3888549804688	631.05908203125	781.9657592773438	607.458251953125	590.1142578125	638.9671020507812	146.0552215576172	970.709716796875	706.1947631835938	304.1492614746094	787.3397216796875	777.482421875	35.88301849365234	884.2423706054688	784.33642578125	56.74250793457031	933.9694213867188	662.865234375	59.36084365844727	901.7275390625	667.7261962890625	202.6884765625	1027.87646484375	1191.689331054688	528.0715942382812	505.3186340332031	1184.208862304688	784.7743530273438	593.419677734375	1215.778442382812	27.89908981323242	526.4943237304688	1197.320190429688	405.5555419921875	467.5434265136719	1255.457275390625	55.59249877929688	313.1019287109375	1196.331298828125	48.43294906616211	344.3784790039062	1284.599609375	24.49219512939453	432.9833374023438	1133.841064453125	32.996826171875	550.4728393554688	
197	1.96	943.5848388671875	1029.914184570312	756.98828125	837.5619506835938	1026.307495117188	688.266357421875	886.4488525390625	1061.457763671875	721.4443359375	1028.323852539062	1273.678833007812	499.8455200195312	853.0567626953125	1217.183837890625	745.656982421875	872.5136108398438	1486.135620117188	676.02734375	1000.488830566406	1386.229736328125	515.9393310546875	926.7267456054688	1316.455200195312	799.5537109375	787.5044555664062	1458.934936523438	621.3191528320312	771.4025268554688	1443.074951171875	513.4567260742188	690.3685302734375	1310.246704101562	509.0863342285156	674.2863159179688	1096.070434570312	514.1465454101562	714.8697509765625	1086.676513671875	594.54052734375	726.9130249023438	845.19580078125	471.3435974121094	648.869140625	846.270751953125	522.2609252929688	656.625244140625	987.4242553710938	510.0497436523438	720.2545166015625	660.7636108398438	511.5691223144531	649.8973999023438	774.385986328125	519.6551513671875	700.9197998046875	764.9266357421875	468.3374328613281	1053.897705078125	1475.012817382812	732.5519409179688	1095.874389648438	1414.54833984375	794.3532104492188	1132.345458984375	1138.65625	873.6275024414062	1055.636474609375	1118.792114257812	811.1834716796875	1217.595458984375	898.399169921875	789.7891235351562	1204.232788085938	895.0978393554688	877.6220092773438	1165.629638671875	1067.299194335938	876.5516967773438	1200.459716796875	709.8587036132812	793.6819458007812	1239.449462890625	801.6624145507812	790.2823486328125	1219.45263671875	809.6289672851562	868.0491943359375	969.4489135742188	1650.251220703125	664.7733154296875	911.8546142578125	1690.314208984375	458.1294250488281	1030.383056640625	1704.820190429688	508.3907775878906	840.8890991210938	1642.6259765625	616.0610961914062	786.7192993164062	959.2203979492188	543.6416625976562	1130.881591796875	991.640625	684.1893310546875	1119.750854492188	1019.563659667969	587.6602783203125	896.8841552734375	995.0554809570312	458.6043701171875	795.9579467773438	463.5349426269531	613.777587890625	790.4492797851562	607.5750122070312	576.0752563476562	646.8832397460938	157.0375671386719	962.9049072265625	714.3560791015625	307.9173583984375	774.3414306640625	779.2154541015625	34.71092224121094	880.4074096679688	788.1116333007812	60.61638259887695	928.2999267578125	666.5888061523438	65.92866516113281	898.0807495117188	678.0620727539062	214.7972869873047	1017.243957519531	1196.945556640625	528.171875	498.2564392089844	1191.511596679688	785.8358154296875	584.3263549804688	1215.918823242188	27.8590202331543	526.5054931640625	1201.535522460938	404.9833984375	462.0579833984375	1255.507690429688	54.20871353149414	312.5773315429688	1196.394287109375	47.87581253051758	344.1689758300781	1284.9150390625	24.2636890411377	433.0108947753906	1134.059326171875	33.16431427001953	550.5327758789062	
198	1.97	951.6643676757812	1032.025756835938	747.9586791992188	845.20166015625	1028.010498046875	680.1478271484375	894.4409790039062	1063.526000976562	712.872802734375	1033.806640625	1276.023803710938	490.0812377929688	860.8801879882812	1219.309326171875	737.34326171875	879.6411743164062	1488.330322265625	667.8695678710938	1006.010620117188	1388.531494140625	506.5161437988281	935.048583984375	1318.570678710938	790.6957397460938	794.2039794921875	1461.181274414062	613.9537353515625	777.1039428710938	1445.5498046875	506.2367248535156	695.2772216796875	1313.345581054688	502.9002075195312	677.4652709960938	1099.672485351562	509.3199768066406	718.8878784179688	1090.286010742188	589.2477416992188	726.1515502929688	847.672119140625	468.2416687011719	648.5946044921875	850.54052734375	519.9535522460938	658.3919067382812	991.37109375	506.2623291015625	717.0280151367188	663.705322265625	511.4636840820312	648.3573608398438	778.6234130859375	518.24072265625	698.8405151367188	767.4356079101562	466.8656005859375	1061.416015625	1477.35498046875	722.5254516601562	1104.003784179688	1416.9833984375	784.0286254882812	1142.033813476562	1141.250732421875	863.3037719726562	1064.766357421875	1121.245727539062	801.6331787109375	1227.089477539062	901.5746459960938	777.4043579101562	1214.908325195312	897.773193359375	865.3563842773438	1175.591186523438	1069.85791015625	865.6591796875	1210.884521484375	712.9876708984375	780.3344116210938	1249.4130859375	805.0040283203125	777.0567016601562	1230.337036132812	812.391357421875	855.1173706054688	976.4476318359375	1652.518676757812	655.2554321289062	916.793212890625	1692.37744140625	449.3150329589844	1035.8759765625	1706.92138671875	498.2806396484375	847.5078125	1644.975952148438	608.0504150390625	793.3377075195312	960.3792724609375	535.7337036132812	1138.384521484375	993.914306640625	673.932861328125	1126.7919921875	1021.815368652344	577.4688720703125	902.73046875	997.27392578125	450.5636291503906	805.183837890625	462.68408203125	596.0126342773438	799.1094970703125	607.6408081054688	561.8217163085938	655.4152221679688	168.4922485351562	954.1994018554688	723.1486206054688	311.7705078125	760.6458129882812	781.0291137695312	33.90547943115234	875.2882080078125	792.2743530273438	65.11402130126953	921.3402709960938	670.9221801757812	73.65175628662109	893.241455078125	689.0208129882812	226.9146423339844	1005.951843261719	1201.950073242188	528.11962890625	491.6609497070312	1198.5546875	786.6616821289062	575.5592651367188	1216.029907226562	27.79667282104492	526.5576171875	1205.577026367188	404.3470458984375	457.00732421875	1255.53369140625	53.12715911865234	312.1298828125	1196.411987304688	47.52582168579102	344.0259399414062	1285.13427734375	24.09474563598633	433.0081481933594	1134.240966796875	33.29666519165039	550.6336059570312	
199	1.98	959.578369140625	1034.100708007812	739.1370239257812	852.6256713867188	1029.702026367188	672.3323364257812	902.3134765625	1065.563110351562	704.5463256835938	1038.931640625	1278.21875	480.4157409667969	868.5640869140625	1221.539428710938	729.2186889648438	886.6596069335938	1490.529296875	659.8190307617188	1011.26708984375	1390.716674804688	497.1544189453125	943.2901611328125	1320.714721679688	781.9889526367188	800.7861328125	1463.448120117188	606.8248901367188	782.5636596679688	1448.002563476562	499.2344055175781	699.9942626953125	1316.424072265625	496.9421997070312	680.5626220703125	1103.205810546875	504.5012512207031	722.7462158203125	1093.835571289062	583.9537353515625	725.7634887695312	850.2885131835938	464.87158203125	648.6884155273438	854.6978759765625	517.2781372070312	660.2421264648438	995.2195434570312	502.3544616699219	714.646484375	666.8234252929688	510.6709594726562	647.3790283203125	782.7680053710938	516.3341064453125	697.3602294921875	770.1293334960938	464.8849182128906	1068.84716796875	1479.61181640625	712.479248046875	1112.077270507812	1419.3544921875	773.651123046875	1151.749633789062	1143.789306640625	852.9807739257812	1073.9033203125	1123.634155273438	792.2098999023438	1236.654663085938	904.8212280273438	764.8088989257812	1225.682861328125	900.4168090820312	852.8638916015625	1185.606079101562	1072.36669921875	854.712646484375	1221.576782226562	716.1995849609375	766.5250244140625	1259.54443359375	808.474609375	763.5005493164062	1241.384887695312	815.152099609375	841.8539428710938	983.2775268554688	1654.759155273438	645.8099365234375	921.525146484375	1694.368774414062	440.5887756347656	1041.158203125	1708.970581054688	488.2400207519531	853.9652709960938	1647.273559570312	600.1295166015625	799.6570434570312	961.4826049804688	528.106201171875	1145.657470703125	996.0097045898438	663.7451171875	1133.564453125	1023.886535644531	567.347412109375	908.1978149414062	999.4689331054688	442.7380676269531	814.8372802734375	461.892333984375	577.8399047851562	807.9190063476562	607.689453125	547.3757934570312	664.5502319335938	180.1651000976562	944.5695190429688	732.55712890625	315.6764526367188	746.293212890625	782.9845581054688	33.7833251953125	868.6045532226562	796.8543090820312	70.09313201904297	912.8663330078125	675.9439697265625	82.35427093505859	886.9483032226562	700.5835571289062	238.7689361572266	994.0492553710938	1206.694091796875	527.938232421875	485.4730834960938	1205.252197265625	787.3299560546875	567.0064697265625	1216.123901367188	27.7181339263916	526.6331787109375	1209.4287109375	403.6533203125	452.333251953125	1255.5625	52.26812362670898	311.75244140625	1196.417236328125	47.31304550170898	343.9282531738281	1285.287231445312	23.96449661254883	432.9900207519531	1134.399536132812	33.4136848449707	550.7515869140625	
